<?xml version="1.0" encoding="UTF-8" standalone="no"?>
<svg
   xmlns:dc="http://purl.org/dc/elements/1.1/"
   xmlns:cc="http://creativecommons.org/ns#"
   xmlns:rdf="http://www.w3.org/1999/02/22-rdf-syntax-ns#"
   xmlns:svg="http://www.w3.org/2000/svg"
   xmlns="http://www.w3.org/2000/svg"
   xmlns:xlink="http://www.w3.org/1999/xlink"
   xmlns:sodipodi="http://sodipodi.sourceforge.net/DTD/sodipodi-0.dtd"
   xmlns:inkscape="http://www.inkscape.org/namespaces/inkscape"
   version="1.0"
   width="48"
   height="48"
   viewBox="0 0 38.4 38.4"
   preserveAspectRatio="xMidYMid meet"
   id="svg2"
   inkscape:version="0.48.2 r9819"
   sodipodi:docname="CorporateAddressbook.svg"
   inkscape:export-filename="C:\Source\android\ui_makeover\res\drawable-xhdpi\icon.png"
   inkscape:export-xdpi="180"
   inkscape:export-ydpi="180">
  <defs
     id="defs12">
    <linearGradient
       id="linearGradient4654">
      <stop
         style="stop-color:#000000;stop-opacity:0.59633029;"
         offset="0"
         id="stop4656" />
      <stop
         id="stop4662"
         offset="0.3888889"
         style="stop-color:#000000;stop-opacity:0;" />
      <stop
         style="stop-color:#000000;stop-opacity:0;"
         offset="1"
         id="stop4658" />
    </linearGradient>
    <linearGradient
       id="linearGradient3823">
      <stop
         style="stop-color:#214479;stop-opacity:1;"
         offset="0"
         id="stop3825" />
      <stop
         style="stop-color:#162d50;stop-opacity:1;"
         offset="1"
         id="stop3827" />
    </linearGradient>
    <linearGradient
       id="linearGradient3801">
      <stop
         style="stop-color:#3771c8;stop-opacity:1;"
         offset="0"
         id="stop3803" />
      <stop
         style="stop-color:#00337e;stop-opacity:1;"
         offset="1"
         id="stop3805" />
    </linearGradient>
    <linearGradient
       id="linearGradient3793">
      <stop
         style="stop-color:#c8c0a5;stop-opacity:1;"
         offset="0"
         id="stop3795" />
      <stop
         style="stop-color:#ffffff;stop-opacity:1;"
         offset="1"
         id="stop3797" />
    </linearGradient>
    <linearGradient
       inkscape:collect="always"
       xlink:href="#linearGradient3793"
       id="linearGradient3799"
       x1="23.5"
       y1="11.5"
       x2="23.5"
       y2="10.181561"
       gradientUnits="userSpaceOnUse"
       gradientTransform="matrix(1.0637289,0,0,0.49294753,-6.3704565,-3.2557131)" />
    <linearGradient
       inkscape:collect="always"
       xlink:href="#linearGradient3801"
       id="linearGradient3815"
       x1="11.1"
       y1="9.0500002"
       x2="29.9"
       y2="34.599998"
       gradientUnits="userSpaceOnUse"
       gradientTransform="matrix(1.3296611,0,0,1.3296611,-6.5034226,-8.8370467)" />
    <linearGradient
       inkscape:collect="always"
       xlink:href="#linearGradient3823"
       id="linearGradient3829"
       x1="1.6805284"
       y1="12.098627"
       x2="16.701307"
       y2="28.148626"
       gradientUnits="userSpaceOnUse"
       gradientTransform="matrix(1.3296611,0,0,1.3296611,-6.3704565,-8.8370467)" />
    <filter
       inkscape:collect="always"
       id="filter3839">
      <feGaussianBlur
         inkscape:collect="always"
         stdDeviation="0.076017399"
         id="feGaussianBlur3841" />
    </filter>
    <linearGradient
       inkscape:collect="always"
       xlink:href="#linearGradient4654"
       id="linearGradient4672"
       x1="34.105686"
       y1="7.4105768"
       x2="36.080132"
       y2="7.4105768"
       gradientUnits="userSpaceOnUse" />
    <linearGradient
       inkscape:collect="always"
       xlink:href="#linearGradient4654"
       id="linearGradient4682"
       x1="34.105682"
       y1="14.618874"
       x2="36.080128"
       y2="14.618874"
       gradientUnits="userSpaceOnUse" />
    <linearGradient
       inkscape:collect="always"
       xlink:href="#linearGradient4654"
       id="linearGradient4692"
       x1="34.105682"
       y1="21.827166"
       x2="36.080128"
       y2="21.827166"
       gradientUnits="userSpaceOnUse" />
    <linearGradient
       inkscape:collect="always"
       xlink:href="#linearGradient4654"
       id="linearGradient4710"
       x1="34.105682"
       y1="29.03546"
       x2="36.080128"
       y2="29.03546"
       gradientUnits="userSpaceOnUse" />
  </defs>
  <sodipodi:namedview
     pagecolor="#ffffff"
     bordercolor="#666666"
     borderopacity="1"
     objecttolerance="10"
     gridtolerance="10"
     guidetolerance="10"
     inkscape:pageopacity="0"
     inkscape:pageshadow="2"
     inkscape:window-width="1920"
     inkscape:window-height="1138"
     id="namedview10"
     showgrid="false"
     inkscape:zoom="8.0000004"
     inkscape:cx="-13.190405"
     inkscape:cy="32.993186"
     inkscape:window-x="1272"
     inkscape:window-y="-8"
     inkscape:window-maximized="1"
     inkscape:current-layer="svg2" />
  <metadata
     id="metadata4">
Created by potrace 1.10, written by Peter Selinger 2001-2011
<rdf:RDF>
  <cc:Work
     rdf:about="">
    <dc:format>image/svg+xml</dc:format>
    <dc:type
       rdf:resource="http://purl.org/dc/dcmitype/StillImage" />
    <dc:title></dc:title>
  </cc:Work>
</rdf:RDF>
</metadata>
  <rect
     style="fill:#aa0000;fill-opacity:1;stroke:none"
     id="rect3847"
     width="1.9744459"
     height="6.7225184"
     x="34.105686"
     y="4.0493174" />
  <rect
     y="11.257614"
     x="34.105682"
     height="6.7225189"
     width="1.9744459"
     id="rect3849"
     style="fill:#008000;fill-opacity:1;stroke:none" />
  <rect
     style="fill:#800080;fill-opacity:1;stroke:none"
     id="rect3851"
     width="1.9744459"
     height="6.7225189"
     x="34.105682"
     y="25.6742" />
  <rect
     y="18.465906"
     x="34.105682"
     height="6.7225189"
     width="1.9744459"
     id="rect3853"
     style="fill:#d4aa00;fill-opacity:1;stroke:none" />
  <rect
     style="fill:url(#linearGradient3799);fill-opacity:1;stroke:none"
     id="rect3791"
     width="28.787163"
     height="1.263178"
     x="3.8679338"
     y="1.334859" />
  <path
     style="fill:url(#linearGradient3829);fill-opacity:1;stroke:none"
     d="M 8.1910718,0.39821268 C 5.2137883,0.40849098 3.6346428,0.42648658 3.529694,0.47275348 3.2463087,0.60358678 2.9556487,0.87239774 2.7885223,1.1775801 2.6651431,1.4173976 2.6576837,2.0786306 2.6358413,19.50336 l -0.056976,17.904195 c 0,0 0.040617,0.236869 0.2232368,0.421575 0.1916265,0.193815 0.285566,0.206616 0.285566,0.206616 l 4.6846854,-0.02493 0,-35.1019996 0.050886,-0.3106317 -3.4515192,-0.010278 0.3051825,-0.5304515 0.2979332,-0.5231773 3.0264291,0 0.00133,-0.60727566 0.1875979,-0.52809156 z"
     id="path2998"
     inkscape:connector-curvature="0"
     sodipodi:nodetypes="cccccsccccccccccc" />
  <path
     style="fill:url(#linearGradient3815);fill-opacity:1;stroke:none"
     d="m 8.0581057,0.39821268 -0.1836728,0.52958826 -0.00532,0.60577876 10.2782731,0 13.297454,0 0.297908,0.5304516 0.305207,0.5231772 -6.924863,0.020563 c -3.814845,0.00771 -10.063901,0.00771 -13.907817,0 L 7.69109,2.5974935 7.640191,2.9081252 l 0,35.1019998 10.340039,0 15.111982,0.01662 0.149369,-0.0477 c 0.429925,-0.234751 0.659348,-0.484916 0.79013,-0.666567 l 0.118313,-0.303084 0.004,-16.627508 C 34.169381,3.894513 34.169381,3.7055894 34.023119,3.4294773 33.848864,3.080672 33.412746,2.710099 33.107563,2.6519568 l -0.23262,-0.043697 -0.02905,-0.5958423 C 32.809655,1.3075911 32.620732,0.91519524 32.184665,0.61001278 L 31.894006,0.40643798 17.753643,0.39101558 c -4.921347,-0.00515 -7.521064,-0.00149 -9.6969521,0.00515 z"
     id="path8"
     inkscape:connector-curvature="0"
     sodipodi:nodetypes="ccccccccccccccccccccccccccc" />
  <path
     style="fill:#87aade;fill-opacity:0.49777778;stroke:none"
     d="m 3.0843637,2.1842099 c 0.4461552,0.9430169 1.2427544,0.9216775 1.2427544,0.9216775 0,0 27.9140099,0.029082 28.1781099,0.029082 0.264102,0 0.483244,-0.037454 0.804193,0.1862015 0.292636,0.2039222 0.343095,0.3430951 0.343095,0.3430951 l 0.481829,-0.280901 c 0,0 -0.21607,-0.3656568 -0.53602,-0.565106 C 33.278376,2.6188102 32.891942,2.6021894 32.891942,2.6021894 L 32.181406,2.5897225 4.3748678,2.585574 c 0,0 -0.5698955,0.015849 -1.2905041,-0.4013641 z"
     id="path3011"
     inkscape:connector-curvature="0"
     sodipodi:nodetypes="ccssccscccc" />
  <path
     sodipodi:type="inkscape:offset"
     inkscape:radius="0.042792924"
     inkscape:original="M 8.84375 9.0625 C 8.84375 9.0625 8.792969 9.164063 8.71875 9.25 C 8.644531 9.3359375 8.617187 9.390625 8.59375 9.46875 C 8.570312 9.546875 8.5625 9.75 8.5625 9.75 L 8.5 10.71875 L 8.4375 43.625 L 8.84375 44.03125 L 37.1875 44.03125 C 37.1875 44.03125 37.453125 43.988282 37.84375 43.625 C 38.234375 43.261719 38.1875 42.96875 38.1875 42.96875 C 38.1875 42.96875 38.20313 12.585938 38.1875 12.09375 C 38.171879 11.601563 38.0625 11.5 38.0625 11.5 C 38.0625 11.5 37.515701 11.617816 37.625 11.75 C 37.64785 11.777641 37.750398 11.8451 37.75 12.25 L 37.71875 42.71875 C 37.71875 42.71875 37.652343 42.992187 37.34375 43.25 C 37.035156 43.507806 36.84375 43.5 36.84375 43.5 L 9.25 43.5 L 8.96875 43.21875 L 8.9375 10.40625 L 8.9375 9.71875 C 8.9375 9.71875 8.914062 9.6367188 9 9.5 C 9.0859373 9.3632809 9.21875 9.3125 9.21875 9.3125 L 8.84375 9.0625 z "
     style="fill:#000000;fill-opacity:0.49803922;stroke:none"
     id="path3783"
     d="m 8.8125,9.03125 c 0,0 -0.055371,0.1068779 -0.125,0.1875 -0.07669,0.088799 -0.1005101,0.1683651 -0.125,0.25 -0.014276,0.047586 -0.026287,0.094703 -0.03125,0.15625 -0.00496,0.061547 0,0.125 0,0.125 L 8.46875,10.71875 8.40625,43.625 a 0.0427972,0.0427972 0 0 0 0,0.03125 L 8.8125,44.0625 a 0.0427972,0.0427972 0 0 0 0.03125,0 l 28.34375,0 c 0,0 0.06838,-0.0045 0.1875,-0.0625 0.119122,-0.05805 0.301762,-0.159388 0.5,-0.34375 0.200138,-0.186129 0.273127,-0.34286 0.3125,-0.46875 0.03937,-0.12589 0.03125,-0.21875 0.03125,-0.21875 0,0 0.0293,-7.592766 0.03125,-15.25 9.77e-4,-3.828617 7.33e-4,-7.676133 0,-10.59375 -3.66e-4,-1.458808 0.0011,-2.684589 0,-3.5625 -0.0011,-0.877911 -0.02907,-1.400133 -0.03125,-1.46875 -0.0079,-0.249165 -0.03143,-0.407839 -0.0625,-0.5 -0.01553,-0.04608 -0.01889,-0.07348 -0.03125,-0.09375 -0.01236,-0.02027 -0.03125,-0.03125 -0.03125,-0.03125 a 0.0427972,0.0427972 0 0 0 -0.03125,0 c 0,0 -0.154091,0.01498 -0.28125,0.0625 -0.06358,0.02376 -0.112758,0.05784 -0.15625,0.09375 -0.02175,0.01795 -0.05437,0.03378 -0.0625,0.0625 -0.0081,0.02872 0.01101,0.06927 0.03125,0.09375 0.01028,0.01244 0.02068,0.01761 0.03125,0.03125 0.01057,0.01364 0.01843,0.03054 0.03125,0.0625 0.02563,0.06392 0.06269,0.176165 0.0625,0.375 L 37.6875,42.71875 c 0,0 -0.07551,0.249795 -0.375,0.5 -0.150793,0.125976 -0.262517,0.190295 -0.34375,0.21875 -0.08123,0.02846 -0.125,0.03125 -0.125,0.03125 l -27.5625,0 -0.03125,0 -0.25,-0.25 0,-0.03125 -0.03125,-32.78125 0,-0.6875 c 0,0 -0.00406,-0.031209 0,-0.0625 0.00406,-0.031291 0.022516,-0.061389 0.0625,-0.125 0.077906,-0.1239427 0.1875,-0.1875 0.1875,-0.1875 a 0.0427972,0.0427972 0 0 0 0.03125,0 0.0427972,0.0427972 0 0 0 0,-0.03125 0.0427972,0.0427972 0 0 0 0,-0.03125 l -0.375,-0.25 a 0.0427972,0.0427972 0 0 0 -0.03125,0 0.0427972,0.0427972 0 0 0 -0.03125,0 z"
     transform="matrix(1.0585774,0,0,1.0630173,-6.3271521,-8.8306199)" />
  <path
     style="fill:#87aade;fill-opacity:0.49803922;stroke:none"
     d="m 3.0950685,0.76144438 c 0,0 0.083104,-0.099725 0.2493115,-0.1911387 0.1662076,-0.0914137 0.2991737,-0.1163454 0.2991737,-0.1163454 l 4.5540887,-0.058172 23.8341756,0.016621 c 0,0 0.723003,0.4072088 0.839349,0.92245232 0.116345,0.5152442 0.108034,0.5734174 0.108034,0.5734174 0,0 -0.191138,-0.4487616 -0.556795,-0.739625 C 32.056749,0.87778974 31.724334,0.81961708 31.724334,0.81961708 L 3.9177963,0.77806518 c 0,0 -0.1495869,0 -0.2576218,0.083104 -0.108035,0.083104 -0.1911388,0.17451822 -0.1911388,0.17451822 z"
     id="path3785"
     inkscape:connector-curvature="0" />
  <text
     sodipodi:linespacing="125%"
     id="text3835"
     y="26.088982"
     x="12.812335"
     style="font-size:17.38510704px;font-style:normal;font-variant:normal;font-weight:normal;font-stretch:normal;text-align:start;line-height:125%;letter-spacing:0px;word-spacing:0px;writing-mode:lr-tb;text-anchor:start;fill:#ffffff;fill-opacity:0.56306308;stroke:none;filter:url(#filter3839);font-family:Roboto Bk;-inkscape-font-specification:Roboto Bk"
     xml:space="preserve"
     transform="matrix(1.3296611,0,0,1.3296611,-6.3704565,-8.8370467)"><tspan
       y="26.088982"
       x="12.812335"
       id="tspan3837"
       sodipodi:role="line">@</tspan></text>
  <text
     xml:space="preserve"
     style="font-size:17.38510704px;font-style:normal;font-variant:normal;font-weight:normal;font-stretch:normal;text-align:start;line-height:125%;letter-spacing:0px;word-spacing:0px;writing-mode:lr-tb;text-anchor:start;fill:#000000;fill-opacity:0.56306308;stroke:none;filter:url(#filter3839);font-family:Roboto Bk;-inkscape-font-specification:Roboto Bk"
     x="12.812335"
     y="25.488991"
     id="text3843"
     sodipodi:linespacing="125%"
     transform="matrix(1.3296611,0,0,1.3296611,-6.3704565,-8.8370467)"><tspan
       sodipodi:role="line"
       id="tspan3845"
       x="12.812335"
       y="25.488991">@</tspan></text>
  <text
     xml:space="preserve"
     style="font-size:23.11630058px;font-style:normal;font-variant:normal;font-weight:normal;font-stretch:normal;text-align:start;line-height:125%;letter-spacing:0px;word-spacing:0px;writing-mode:lr-tb;text-anchor:start;fill:#1d3b69;fill-opacity:1;stroke:none;font-family:Roboto Bk;-inkscape-font-specification:Roboto Bk"
     x="10.665607"
     y="25.453564"
     id="text3831"
     sodipodi:linespacing="125%"><tspan
       sodipodi:role="line"
       id="tspan3833"
       x="10.665607"
       y="25.453564">@</tspan></text>
  <rect
     y="4.0493174"
     x="34.105686"
     height="6.7225184"
     width="1.9744459"
     id="rect4664"
     style="fill:url(#linearGradient4672);fill-opacity:1.0;stroke:none" />
  <rect
     style="fill:url(#linearGradient4682);fill-opacity:1.0;stroke:none"
     id="rect4674"
     width="1.9744459"
     height="6.7225189"
     x="34.105682"
     y="11.257614" />
  <rect
     style="fill:url(#linearGradient4692);fill-opacity:1.0;stroke:none"
     id="rect4684"
     width="1.9744459"
     height="6.7225189"
     x="34.105682"
     y="18.465906" />
  <rect
     y="25.6742"
     x="34.105682"
     height="6.7225189"
     width="1.9744459"
     id="rect4702"
     style="fill:url(#linearGradient4710);fill-opacity:1.0;stroke:none" />
</svg>
